<svg width="21" height="21" viewBox="0 0 21 21" fill="none" xmlns="http://www.w3.org/2000/svg">
<path d="M10.4999 0.083374C4.75617 0.083374 0.083252 4.75629 0.083252 10.5V14.8157C0.083252 15.8823 1.01763 16.75 2.16659 16.75H3.20825C3.48452 16.75 3.74947 16.6403 3.94482 16.4449C4.14017 16.2496 4.24992 15.9846 4.24992 15.7084V10.3511C4.24992 10.0748 4.14017 9.80986 3.94482 9.61451C3.74947 9.41916 3.48452 9.30942 3.20825 9.30942H2.26242C2.84159 5.27817 6.31034 2.16671 10.4999 2.16671C14.6895 2.16671 18.1583 5.27817 18.7374 9.30942H17.7916C17.5153 9.30942 17.2504 9.41916 17.055 9.61451C16.8597 9.80986 16.7499 10.0748 16.7499 10.3511V16.75C16.7499 17.899 15.8155 18.8334 14.6666 18.8334H12.5833V17.7917H8.41658V20.9167H14.6666C16.9645 20.9167 18.8333 19.048 18.8333 16.75C19.9822 16.75 20.9166 15.8823 20.9166 14.8157V10.5C20.9166 4.75629 16.2437 0.083374 10.4999 0.083374Z" fill="#1D4645"/>
</svg>
