<svg width="17" height="21" viewBox="0 0 17 21" fill="none" xmlns="http://www.w3.org/2000/svg">
<path d="M1.20829 0.083313H15.7916C16.0679 0.083313 16.3328 0.19306 16.5282 0.38841C16.7235 0.58376 16.8333 0.848712 16.8333 1.12498V19.875C16.8333 20.1512 16.7235 20.4162 16.5282 20.6115C16.3328 20.8069 16.0679 20.9166 15.7916 20.9166H1.20829C0.932025 20.9166 0.667074 20.8069 0.471723 20.6115C0.276373 20.4162 0.166626 20.1512 0.166626 19.875V1.12498C0.166626 0.848712 0.276373 0.58376 0.471723 0.38841C0.667074 0.19306 0.932025 0.083313 1.20829 0.083313ZM5.37496 9.45831V6.33331L0.166626 10.5L5.37496 14.6666V11.5416H11.625V9.45831H5.37496Z" fill="#1D4645"/>
</svg>
