<svg width="1440" height="745" viewBox="0 0 1440 745" fill="none" xmlns="http://www.w3.org/2000/svg">
<rect x="-72.5576" y="608.424" width="1641.68" height="114.005" transform="rotate(-21.246 -72.5576 608.424)" fill="#1D4645" fill-opacity="0.3"/>
<path d="M236.531 565.946C234.439 566.759 232.355 567.173 230.276 567.188C228.224 567.194 226.291 566.83 224.479 566.096C222.693 565.352 221.103 564.282 219.709 562.886C218.34 561.481 217.269 559.783 216.496 557.794C215.723 555.805 215.366 553.83 215.425 551.87C215.511 549.899 215.973 548.031 216.814 546.266C217.654 544.501 218.833 542.927 220.35 541.544C221.867 540.162 223.672 539.064 225.763 538.251C227.88 537.428 229.951 537.019 231.979 537.023C234.032 537.017 235.951 537.387 237.738 538.131C239.54 538.839 241.138 539.891 242.532 541.287C243.926 542.682 245.014 544.387 245.797 546.402C246.571 548.391 246.92 550.384 246.845 552.38C246.759 554.351 246.297 556.218 245.457 557.984C244.632 559.713 243.461 561.27 241.943 562.652C240.451 564.025 238.647 565.123 236.531 565.946ZM247.506 568.239C246.461 568.646 245.422 568.918 244.389 569.055C243.382 569.183 242.32 569.17 241.203 569.017C240.113 568.854 238.901 568.532 237.57 568.052C236.263 567.561 234.789 566.902 233.145 566.073L239.009 561.9C240.064 562.575 240.994 563.08 241.799 563.413C242.604 563.746 243.318 563.923 243.943 563.944C244.593 563.956 245.224 563.842 245.836 563.604C247.469 562.97 248.664 561.742 249.424 559.92L253.457 562.139C252.499 565.036 250.516 567.069 247.506 568.239ZM234.478 560.667C235.677 560.201 236.694 559.57 237.53 558.776C238.391 557.971 239.056 557.037 239.523 555.975C239.991 554.912 240.226 553.779 240.227 552.575C240.244 551.335 240.01 550.091 239.524 548.841C239.028 547.566 238.36 546.49 237.52 545.613C236.706 544.726 235.767 544.049 234.705 543.581C233.642 543.114 232.522 542.874 231.343 542.863C230.19 542.841 229.014 543.064 227.815 543.53C226.617 543.996 225.587 544.631 224.725 545.436C223.864 546.24 223.199 547.174 222.732 548.236C222.29 549.289 222.055 550.422 222.028 551.636C222.027 552.841 222.274 554.08 222.769 555.355C223.255 556.605 223.91 557.686 224.735 558.598C225.575 559.475 226.513 560.153 227.55 560.63C228.613 561.098 229.734 561.337 230.912 561.349C232.091 561.36 233.28 561.133 234.478 560.667ZM267.735 553.813C263.935 555.291 260.553 555.387 257.588 554.104C254.623 552.82 252.377 550.214 250.85 546.287L245.02 531.292L251.217 528.883L256.957 543.648C257.949 546.198 259.186 547.831 260.667 548.547C262.149 549.262 263.834 549.253 265.721 548.52C267.608 547.786 268.856 546.655 269.466 545.126C270.075 543.598 269.884 541.558 268.892 539.008L263.151 524.243L269.272 521.863L275.102 536.858C276.629 540.785 276.733 544.224 275.413 547.173C274.094 550.123 271.535 552.336 267.735 553.813ZM285.806 546.259L275.396 519.482L281.592 517.073L292.003 543.849L285.806 546.259ZM296.637 542.048L295.075 538.032L303.875 511.624L305.517 513.583L288.495 520.202L286.532 515.152L309.062 506.392L310.624 510.409L301.862 536.802L300.22 534.842L318.084 527.897L320.047 532.946L296.637 542.048Z" fill="white"/>
<path d="M578.678 432.919C576.586 433.732 574.502 434.146 572.423 434.161C570.371 434.167 568.438 433.803 566.626 433.069C564.84 432.325 563.25 431.255 561.856 429.859C560.487 428.454 559.416 426.757 558.643 424.768C557.87 422.778 557.513 420.803 557.572 418.843C557.658 416.872 558.12 415.004 558.961 413.239C559.801 411.474 560.98 409.9 562.497 408.517C564.014 407.135 565.819 406.037 567.91 405.224C570.027 404.401 572.098 403.992 574.126 403.996C576.179 403.991 578.098 404.36 579.885 405.104C581.687 405.812 583.285 406.864 584.679 408.26C586.073 409.655 587.161 411.361 587.944 413.375C588.718 415.364 589.067 417.357 588.992 419.353C588.906 421.324 588.444 423.192 587.604 424.957C586.779 426.687 585.608 428.243 584.09 429.625C582.599 430.998 580.794 432.096 578.678 432.919ZM589.653 435.213C588.608 435.619 587.569 435.891 586.536 436.028C585.529 436.156 584.467 436.143 583.35 435.99C582.26 435.827 581.048 435.505 579.717 435.025C578.41 434.534 576.936 433.875 575.292 433.046L581.156 428.873C582.211 429.549 583.141 430.053 583.946 430.386C584.751 430.719 585.465 430.896 586.09 430.917C586.74 430.929 587.371 430.816 587.983 430.578C589.616 429.943 590.811 428.715 591.571 426.893L595.604 429.112C594.646 432.009 592.663 434.043 589.653 435.213ZM576.625 427.64C577.824 427.174 578.841 426.544 579.677 425.749C580.538 424.944 581.203 424.011 581.67 422.948C582.138 421.886 582.373 420.752 582.374 419.548C582.391 418.308 582.157 417.064 581.671 415.814C581.175 414.539 580.507 413.463 579.667 412.586C578.853 411.699 577.914 411.022 576.852 410.554C575.789 410.087 574.669 409.847 573.49 409.836C572.337 409.814 571.161 410.037 569.962 410.503C568.764 410.969 567.734 411.604 566.872 412.409C566.011 413.213 565.346 414.147 564.879 415.209C564.437 416.262 564.202 417.395 564.175 418.609C564.174 419.814 564.421 421.053 564.916 422.328C565.402 423.578 566.057 424.659 566.882 425.571C567.722 426.448 568.66 427.126 569.697 427.603C570.76 428.071 571.881 428.31 573.059 428.322C574.238 428.333 575.427 428.106 576.625 427.64ZM609.882 420.786C606.082 422.264 602.7 422.361 599.735 421.077C596.77 419.793 594.524 417.188 592.997 413.26L587.167 398.265L593.364 395.856L599.104 410.621C600.096 413.172 601.333 414.804 602.814 415.52C604.296 416.236 605.981 416.226 607.868 415.493C609.755 414.759 611.003 413.628 611.613 412.099C612.222 410.571 612.031 408.531 611.039 405.981L605.298 391.216L611.419 388.836L617.249 403.831C618.776 407.758 618.88 411.197 617.56 414.146C616.241 417.096 613.682 419.309 609.882 420.786ZM627.953 413.232L617.543 386.455L623.739 384.046L634.15 410.823L627.953 413.232ZM638.784 409.021L637.222 405.005L646.022 378.597L647.664 380.557L630.642 387.175L628.679 382.125L651.209 373.366L652.771 377.382L644.009 403.775L642.367 401.815L660.231 394.87L662.194 399.919L638.784 409.021Z" fill="white"/>
<path d="M920.825 299.892C918.734 300.705 916.649 301.12 914.571 301.135C912.518 301.141 910.585 300.776 908.773 300.042C906.987 299.298 905.397 298.229 904.003 296.833C902.634 295.428 901.564 293.73 900.79 291.741C900.017 289.752 899.66 287.777 899.72 285.816C899.805 283.846 900.267 281.978 901.108 280.213C901.948 278.447 903.127 276.874 904.644 275.491C906.162 274.108 907.966 273.011 910.057 272.198C912.174 271.375 914.246 270.965 916.273 270.97C918.326 270.964 920.245 271.333 922.032 272.077C923.834 272.786 925.432 273.838 926.826 275.233C928.22 276.629 929.308 278.334 930.092 280.349C930.865 282.338 931.214 284.331 931.139 286.327C931.054 288.297 930.591 290.165 929.751 291.93C928.926 293.66 927.755 295.216 926.238 296.599C924.746 297.972 922.941 299.069 920.825 299.892ZM931.801 302.186C930.755 302.593 929.716 302.865 928.683 303.002C927.676 303.129 926.614 303.117 925.498 302.963C924.407 302.8 923.195 302.479 921.864 301.998C920.558 301.508 919.083 300.849 917.439 300.02L923.303 295.846C924.358 296.522 925.288 297.027 926.093 297.36C926.898 297.693 927.612 297.87 928.237 297.891C928.887 297.902 929.519 297.789 930.131 297.551C931.763 296.917 932.959 295.688 933.718 293.867L937.751 296.086C936.793 298.983 934.81 301.016 931.801 302.186ZM918.772 294.614C919.971 294.148 920.988 293.517 921.824 292.722C922.686 291.918 923.35 290.984 923.818 289.922C924.285 288.859 924.52 287.726 924.521 286.522C924.538 285.282 924.304 284.037 923.818 282.788C923.322 281.513 922.655 280.437 921.814 279.56C921 278.673 920.061 277.996 918.999 277.528C917.936 277.06 916.816 276.821 915.637 276.809C914.484 276.788 913.308 277.01 912.109 277.476C910.911 277.942 909.881 278.578 909.019 279.382C908.158 280.187 907.494 281.121 907.026 282.183C906.584 283.236 906.349 284.369 906.322 285.583C906.321 286.787 906.568 288.027 907.064 289.302C907.549 290.552 908.205 291.633 909.029 292.545C909.869 293.422 910.808 294.099 911.845 294.577C912.907 295.044 914.028 295.284 915.206 295.295C916.385 295.307 917.574 295.08 918.772 294.614ZM952.029 287.76C948.229 289.237 944.847 289.334 941.882 288.05C938.917 286.767 936.671 284.161 935.144 280.234L929.314 265.239L935.511 262.83L941.252 277.595C942.243 280.145 943.48 281.778 944.962 282.494C946.443 283.209 948.128 283.2 950.015 282.466C951.902 281.733 953.15 280.602 953.76 279.073C954.369 277.544 954.178 275.505 953.186 272.955L947.446 258.189L953.566 255.81L959.396 270.805C960.923 274.732 961.027 278.17 959.708 281.12C958.388 284.069 955.829 286.283 952.029 287.76ZM970.1 280.206L959.69 253.429L965.887 251.02L976.297 277.796L970.1 280.206ZM980.931 275.995L979.369 271.978L988.169 245.571L989.811 247.53L972.789 254.148L970.826 249.099L993.357 240.339L994.918 244.356L986.157 270.748L984.514 268.789L1002.38 261.843L1004.34 266.893L980.931 275.995Z" fill="white"/>
<path d="M1262.97 166.866C1260.88 167.679 1258.8 168.093 1256.72 168.108C1254.66 168.114 1252.73 167.75 1250.92 167.016C1249.13 166.272 1247.54 165.202 1246.15 163.806C1244.78 162.401 1243.71 160.704 1242.94 158.715C1242.16 156.725 1241.81 154.75 1241.87 152.79C1241.95 150.819 1242.41 148.951 1243.25 147.186C1244.09 145.421 1245.27 143.847 1246.79 142.464C1248.31 141.082 1250.11 139.984 1252.2 139.171C1254.32 138.348 1256.39 137.939 1258.42 137.943C1260.47 137.938 1262.39 138.307 1264.18 139.051C1265.98 139.759 1267.58 140.811 1268.97 142.207C1270.37 143.602 1271.46 145.308 1272.24 147.322C1273.01 149.311 1273.36 151.304 1273.29 153.3C1273.2 155.271 1272.74 157.139 1271.9 158.904C1271.07 160.634 1269.9 162.19 1268.38 163.572C1266.89 164.945 1265.09 166.043 1262.97 166.866ZM1273.95 169.16C1272.9 169.566 1271.86 169.838 1270.83 169.975C1269.82 170.103 1268.76 170.09 1267.64 169.937C1266.55 169.774 1265.34 169.452 1264.01 168.972C1262.7 168.481 1261.23 167.822 1259.59 166.993L1265.45 162.82C1266.51 163.496 1267.44 164 1268.24 164.333C1269.04 164.666 1269.76 164.843 1270.38 164.865C1271.03 164.876 1271.67 164.763 1272.28 164.525C1273.91 163.89 1275.11 162.662 1275.87 160.84L1279.9 163.059C1278.94 165.956 1276.96 167.99 1273.95 169.16ZM1260.92 161.587C1262.12 161.121 1263.14 160.491 1263.97 159.696C1264.83 158.891 1265.5 157.958 1265.96 156.895C1266.43 155.833 1266.67 154.699 1266.67 153.495C1266.69 152.255 1266.45 151.011 1265.97 149.761C1265.47 148.486 1264.8 147.41 1263.96 146.533C1263.15 145.646 1262.21 144.969 1261.15 144.501C1260.08 144.034 1258.96 143.794 1257.78 143.783C1256.63 143.761 1255.45 143.984 1254.26 144.45C1253.06 144.916 1252.03 145.551 1251.17 146.356C1250.3 147.16 1249.64 148.094 1249.17 149.156C1248.73 150.209 1248.5 151.342 1248.47 152.557C1248.47 153.761 1248.71 155 1249.21 156.275C1249.7 157.525 1250.35 158.606 1251.18 159.518C1252.02 160.395 1252.95 161.073 1253.99 161.55C1255.05 162.018 1256.17 162.257 1257.35 162.269C1258.53 162.28 1259.72 162.053 1260.92 161.587ZM1294.18 154.733C1290.38 156.211 1286.99 156.308 1284.03 155.024C1281.06 153.74 1278.82 151.135 1277.29 147.207L1271.46 132.212L1277.66 129.803L1283.4 144.568C1284.39 147.119 1285.63 148.751 1287.11 149.467C1288.59 150.183 1290.27 150.173 1292.16 149.44C1294.05 148.706 1295.3 147.575 1295.91 146.046C1296.52 144.518 1296.32 142.478 1295.33 139.928L1289.59 125.163L1295.71 122.783L1301.54 137.778C1303.07 141.705 1303.17 145.144 1301.85 148.093C1300.54 151.043 1297.98 153.256 1294.18 154.733ZM1312.25 147.179L1301.84 120.402L1308.03 117.993L1318.44 144.77L1312.25 147.179ZM1323.08 142.968L1321.52 138.952L1330.32 112.544L1331.96 114.504L1314.94 121.122L1312.97 116.072L1335.5 107.313L1337.07 111.329L1328.3 137.722L1326.66 135.762L1344.52 128.817L1346.49 133.866L1323.08 142.968Z" fill="white"/>
<path d="M65.4571 632.459C63.3659 633.272 61.2812 633.686 59.2029 633.701C57.1501 633.707 55.2177 633.343 53.4058 632.609C51.6193 631.865 50.0292 630.795 48.6352 629.399C47.2668 627.994 46.1959 626.297 45.4225 624.308C44.6491 622.318 44.2923 620.343 44.3519 618.383C44.4371 616.412 44.8998 614.544 45.74 612.779C46.5803 611.014 47.7591 609.44 49.2765 608.057C50.7939 606.675 52.5982 605.577 54.6893 604.764C56.806 603.941 58.878 603.532 60.9053 603.536C62.9581 603.531 64.8777 603.9 66.6641 604.644C68.4661 605.352 70.0641 606.404 71.4581 607.8C72.852 609.195 73.9406 610.901 74.7239 612.915C75.4973 614.904 75.8463 616.897 75.7711 618.893C75.6859 620.864 75.2232 622.732 74.383 624.497C73.5583 626.227 72.3873 627.783 70.8699 629.165C69.378 630.538 67.5737 631.636 65.4571 632.459ZM76.4329 634.753C75.3873 635.159 74.3481 635.431 73.3153 635.568C72.308 635.696 71.2462 635.683 70.1299 635.53C69.039 635.367 67.8277 635.045 66.4961 634.565C65.1899 634.075 63.7151 633.415 62.0718 632.586L67.9352 628.413C68.9906 629.089 69.9206 629.593 70.7253 629.926C71.53 630.259 72.2447 630.436 72.8695 630.458C73.5197 630.469 74.1509 630.356 74.7629 630.118C76.395 629.483 77.5908 628.255 78.3503 626.433L82.3836 628.652C81.4256 631.549 79.4421 633.583 76.4329 634.753ZM63.4046 627.18C64.6032 626.714 65.6205 626.084 66.4564 625.289C67.3178 624.484 67.9823 623.551 68.4499 622.488C68.9175 621.426 69.1521 620.292 69.1536 619.088C69.1707 617.848 68.9363 616.604 68.4505 615.354C67.9547 614.079 67.2868 613.003 66.4468 612.126C65.6323 611.239 64.6937 610.562 63.6312 610.094C62.5687 609.627 61.4481 609.387 60.2694 609.376C59.1162 609.354 57.9403 609.577 56.7418 610.043C55.5432 610.509 54.5132 611.144 53.6517 611.949C52.7903 612.753 52.1258 613.687 51.6582 614.749C51.2161 615.802 50.9816 616.935 50.9545 618.15C50.953 619.354 51.2002 620.593 51.6959 621.868C52.1817 623.118 52.8369 624.199 53.6614 625.111C54.5014 625.988 55.4399 626.666 56.4769 627.143C57.5394 627.611 58.66 627.85 59.8387 627.862C61.0174 627.873 62.2061 627.646 63.4046 627.18ZM96.6615 620.326C92.8618 621.804 89.4793 621.901 86.5143 620.617C83.5492 619.333 81.3032 616.728 79.7763 612.8L73.9462 597.805L80.1431 595.396L85.8839 610.161C86.8754 612.712 88.1121 614.344 89.5939 615.06C91.0758 615.776 92.7602 615.766 94.6473 615.033C96.5345 614.299 97.7827 613.168 98.392 611.639C99.0013 610.111 98.8102 608.071 97.8187 605.521L92.0779 590.756L98.1983 588.376L104.028 603.371C105.555 607.298 105.659 610.737 104.34 613.686C103.021 616.636 100.461 618.849 96.6615 620.326ZM114.733 612.772L104.322 585.995L110.519 583.586L120.93 610.363L114.733 612.772ZM125.563 608.561L124.001 604.545L132.801 578.137L134.444 580.097L117.421 586.715L115.458 581.665L137.989 572.906L139.551 576.922L130.789 603.315L129.146 601.355L147.01 594.41L148.973 599.459L125.563 608.561Z" fill="white"/>
<path d="M407.604 499.432C405.513 500.245 403.428 500.659 401.35 500.675C399.297 500.68 397.365 500.316 395.553 499.582C393.766 498.838 392.176 497.768 390.782 496.373C389.414 494.967 388.343 493.27 387.57 491.281C386.796 489.292 386.439 487.317 386.499 485.356C386.584 483.385 387.047 481.517 387.887 479.752C388.727 477.987 389.906 476.413 391.424 475.031C392.941 473.648 394.745 472.55 396.836 471.737C398.953 470.914 401.025 470.505 403.052 470.509C405.105 470.504 407.025 470.873 408.811 471.617C410.613 472.325 412.211 473.377 413.605 474.773C414.999 476.169 416.088 477.874 416.871 479.888C417.644 481.877 417.993 483.87 417.918 485.866C417.833 487.837 417.37 489.705 416.53 491.47C415.705 493.2 414.534 494.756 413.017 496.138C411.525 497.511 409.721 498.609 407.604 499.432ZM418.58 501.726C417.534 502.132 416.495 502.404 415.462 502.542C414.455 502.669 413.393 502.656 412.277 502.503C411.186 502.34 409.975 502.018 408.643 501.538C407.337 501.048 405.862 500.388 404.219 499.559L410.082 495.386C411.138 496.062 412.068 496.566 412.872 496.899C413.677 497.232 414.392 497.409 415.017 497.431C415.667 497.442 416.298 497.329 416.91 497.091C418.542 496.456 419.738 495.228 420.497 493.406L424.531 495.625C423.573 498.522 421.589 500.556 418.58 501.726ZM405.552 494.153C406.75 493.687 407.768 493.057 408.603 492.262C409.465 491.457 410.129 490.524 410.597 489.461C411.065 488.399 411.299 487.265 411.301 486.061C411.318 484.822 411.083 483.577 410.598 482.327C410.102 481.052 409.434 479.976 408.594 479.099C407.779 478.212 406.841 477.535 405.778 477.067C404.716 476.6 403.595 476.36 402.417 476.349C401.263 476.328 400.087 476.55 398.889 477.016C397.69 477.482 396.66 478.117 395.799 478.922C394.937 479.727 394.273 480.66 393.805 481.723C393.363 482.775 393.129 483.909 393.102 485.123C393.1 486.327 393.347 487.567 393.843 488.842C394.329 490.091 394.984 491.172 395.808 492.085C396.648 492.962 397.587 493.639 398.624 494.116C399.686 494.584 400.807 494.824 401.986 494.835C403.165 494.846 404.353 494.619 405.552 494.153ZM438.809 487.3C435.009 488.777 431.626 488.874 428.661 487.59C425.696 486.306 423.45 483.701 421.923 479.773L416.093 464.778L422.29 462.369L428.031 477.135C429.023 479.685 430.259 481.318 431.741 482.033C433.223 482.749 434.907 482.74 436.794 482.006C438.682 481.272 439.93 480.141 440.539 478.612C441.148 477.084 440.957 475.045 439.966 472.494L434.225 457.729L440.345 455.349L446.175 470.344C447.702 474.272 447.806 477.71 446.487 480.659C445.168 483.609 442.608 485.822 438.809 487.3ZM456.88 479.745L446.469 452.968L452.666 450.559L463.077 477.336L456.88 479.745ZM467.71 475.534L466.148 471.518L474.948 445.11L476.591 447.07L459.568 453.688L457.605 448.639L480.136 439.879L481.698 443.895L472.936 470.288L471.293 468.329L489.157 461.383L491.121 466.432L467.71 475.534Z" fill="white"/>
<path d="M749.751 366.406C747.66 367.219 745.575 367.633 743.497 367.648C741.444 367.654 739.512 367.289 737.7 366.555C735.914 365.812 734.323 364.742 732.929 363.346C731.561 361.941 730.49 360.243 729.717 358.254C728.943 356.265 728.586 354.29 728.646 352.33C728.731 350.359 729.194 348.491 730.034 346.726C730.874 344.961 732.053 343.387 733.571 342.004C735.088 340.622 736.892 339.524 738.984 338.711C741.1 337.888 743.172 337.479 745.199 337.483C747.252 337.477 749.172 337.847 750.958 338.591C752.76 339.299 754.358 340.351 755.752 341.747C757.146 343.142 758.235 344.847 759.018 346.862C759.791 348.851 760.141 350.844 760.065 352.84C759.98 354.811 759.517 356.678 758.677 358.444C757.853 360.173 756.681 361.73 755.164 363.112C753.672 364.485 751.868 365.583 749.751 366.406ZM760.727 368.699C759.682 369.106 758.642 369.378 757.61 369.515C756.602 369.643 755.54 369.63 754.424 369.477C753.333 369.314 752.122 368.992 750.79 368.512C749.484 368.021 748.009 367.362 746.366 366.533L752.229 362.36C753.285 363.035 754.215 363.54 755.02 363.873C755.824 364.206 756.539 364.383 757.164 364.404C757.814 364.416 758.445 364.302 759.057 364.064C760.689 363.43 761.885 362.202 762.645 360.38L766.678 362.599C765.72 365.496 763.736 367.529 760.727 368.699ZM747.699 361.127C748.897 360.661 749.915 360.03 750.751 359.236C751.612 358.431 752.277 357.497 752.744 356.435C753.212 355.372 753.446 354.239 753.448 353.035C753.465 351.795 753.231 350.551 752.745 349.301C752.249 348.026 751.581 346.95 750.741 346.073C749.926 345.186 748.988 344.509 747.925 344.041C746.863 343.574 745.742 343.334 744.564 343.323C743.41 343.301 742.235 343.524 741.036 343.99C739.837 344.456 738.807 345.091 737.946 345.896C737.085 346.7 736.42 347.634 735.952 348.696C735.51 349.749 735.276 350.882 735.249 352.096C735.247 353.301 735.494 354.54 735.99 355.815C736.476 357.065 737.131 358.146 737.956 359.058C738.796 359.935 739.734 360.613 740.771 361.09C741.834 361.558 742.954 361.797 744.133 361.809C745.312 361.82 746.5 361.593 747.699 361.127ZM780.956 354.273C777.156 355.751 773.774 355.847 770.808 354.564C767.843 353.28 765.597 350.674 764.07 346.747L758.24 331.752L764.437 329.343L770.178 344.108C771.17 346.658 772.406 348.291 773.888 349.007C775.37 349.722 777.054 349.713 778.942 348.98C780.829 348.246 782.077 347.115 782.686 345.586C783.296 344.058 783.104 342.018 782.113 339.468L776.372 324.703L782.493 322.323L788.323 337.318C789.849 341.245 789.953 344.684 788.634 347.633C787.315 350.583 784.755 352.796 780.956 354.273ZM799.027 346.719L788.616 319.942L794.813 317.533L805.224 344.309L799.027 346.719ZM809.857 342.508L808.296 338.491L817.095 312.084L818.738 314.043L801.716 320.662L799.752 315.612L822.283 306.852L823.845 310.869L815.083 337.262L813.441 335.302L831.305 328.357L833.268 333.406L809.857 342.508Z" fill="white"/>
<path d="M1091.9 233.379C1089.81 234.192 1087.72 234.606 1085.64 234.622C1083.59 234.627 1081.66 234.263 1079.85 233.529C1078.06 232.785 1076.47 231.715 1075.08 230.32C1073.71 228.914 1072.64 227.217 1071.86 225.228C1071.09 223.239 1070.73 221.264 1070.79 219.303C1070.88 217.333 1071.34 215.465 1072.18 213.699C1073.02 211.934 1074.2 210.36 1075.72 208.978C1077.24 207.595 1079.04 206.497 1081.13 205.684C1083.25 204.861 1085.32 204.452 1087.35 204.457C1089.4 204.451 1091.32 204.82 1093.11 205.564C1094.91 206.273 1096.51 207.325 1097.9 208.72C1099.29 210.116 1100.38 211.821 1101.17 213.836C1101.94 215.825 1102.29 217.817 1102.21 219.814C1102.13 221.784 1101.66 223.652 1100.82 225.417C1100 227.147 1098.83 228.703 1097.31 230.086C1095.82 231.458 1094.01 232.556 1091.9 233.379ZM1102.87 235.673C1101.83 236.079 1100.79 236.351 1099.76 236.489C1098.75 236.616 1097.69 236.603 1096.57 236.45C1095.48 236.287 1094.27 235.966 1092.94 235.485C1091.63 234.995 1090.16 234.335 1088.51 233.506L1094.38 229.333C1095.43 230.009 1096.36 230.514 1097.17 230.846C1097.97 231.179 1098.69 231.357 1099.31 231.378C1099.96 231.389 1100.59 231.276 1101.2 231.038C1102.84 230.404 1104.03 229.175 1104.79 227.353L1108.82 229.572C1107.87 232.469 1105.88 234.503 1102.87 235.673ZM1089.85 228.1C1091.04 227.634 1092.06 227.004 1092.9 226.209C1093.76 225.405 1094.42 224.471 1094.89 223.409C1095.36 222.346 1095.59 221.213 1095.59 220.009C1095.61 218.769 1095.38 217.524 1094.89 216.275C1094.4 215 1093.73 213.924 1092.89 213.047C1092.07 212.16 1091.14 211.482 1090.07 211.015C1089.01 210.547 1087.89 210.308 1086.71 210.296C1085.56 210.275 1084.38 210.497 1083.18 210.963C1081.98 211.429 1080.95 212.065 1080.09 212.869C1079.23 213.674 1078.57 214.607 1078.1 215.67C1077.66 216.722 1077.42 217.856 1077.4 219.07C1077.39 220.274 1077.64 221.514 1078.14 222.789C1078.62 224.038 1079.28 225.119 1080.1 226.032C1080.94 226.909 1081.88 227.586 1082.92 228.064C1083.98 228.531 1085.1 228.771 1086.28 228.782C1087.46 228.794 1088.65 228.566 1089.85 228.1ZM1123.1 221.247C1119.3 222.724 1115.92 222.821 1112.96 221.537C1109.99 220.253 1107.74 217.648 1106.22 213.721L1100.39 198.726L1106.58 196.316L1112.33 211.082C1113.32 213.632 1114.55 215.265 1116.04 215.98C1117.52 216.696 1119.2 216.687 1121.09 215.953C1122.98 215.219 1124.22 214.088 1124.83 212.56C1125.44 211.031 1125.25 208.992 1124.26 206.442L1118.52 191.676L1124.64 189.297L1130.47 204.292C1132 208.219 1132.1 211.657 1130.78 214.607C1129.46 217.556 1126.9 219.77 1123.1 221.247ZM1141.17 213.692L1130.76 186.916L1136.96 184.506L1147.37 211.283L1141.17 213.692ZM1152 209.482L1150.44 205.465L1159.24 179.058L1160.89 181.017L1143.86 187.635L1141.9 182.586L1164.43 173.826L1165.99 177.842L1157.23 204.235L1155.59 202.276L1173.45 195.33L1175.41 200.38L1152 209.482Z" fill="white"/>
<path d="M1434.05 100.353C1431.95 101.166 1429.87 101.58 1427.79 101.595C1425.74 101.601 1423.81 101.237 1421.99 100.503C1420.21 99.7586 1418.62 98.6888 1417.22 97.2933C1415.86 95.8878 1414.78 94.1905 1414.01 92.2013C1413.24 90.2122 1412.88 88.2373 1412.94 86.2766C1413.03 84.3059 1413.49 82.438 1414.33 80.6729C1415.17 78.9077 1416.35 77.3338 1417.86 75.9512C1419.38 74.5686 1421.19 73.4708 1423.28 72.6578C1425.39 71.8348 1427.47 71.4256 1429.49 71.43C1431.55 71.4245 1433.47 71.7937 1435.25 72.5376C1437.05 73.2461 1438.65 74.2981 1440.05 75.6937C1441.44 77.0893 1442.53 78.7944 1443.31 80.809C1444.09 82.7981 1444.43 84.7908 1444.36 86.7869C1444.27 88.7575 1443.81 90.6254 1442.97 92.3906C1442.15 94.1204 1440.98 95.6765 1439.46 97.0591C1437.97 98.4318 1436.16 99.5296 1434.05 100.353ZM1445.02 102.646C1443.98 103.053 1442.94 103.325 1441.9 103.462C1440.9 103.59 1439.83 103.577 1438.72 103.424C1437.63 103.261 1436.42 102.939 1435.08 102.459C1433.78 101.968 1432.3 101.309 1430.66 100.48L1436.52 96.3066C1437.58 96.9825 1438.51 97.4869 1439.31 97.8199C1440.12 98.1529 1440.83 98.33 1441.46 98.3513C1442.11 98.3627 1442.74 98.2494 1443.35 98.0115C1444.98 97.3769 1446.18 96.1487 1446.94 94.3269L1450.97 96.5457C1450.01 99.4429 1448.03 101.476 1445.02 102.646ZM1431.99 95.0737C1433.19 94.6077 1434.21 93.9774 1435.04 93.1826C1435.91 92.378 1436.57 91.4445 1437.04 90.382C1437.51 89.3195 1437.74 88.1861 1437.74 86.9819C1437.76 85.7423 1437.52 84.4977 1437.04 83.2481C1436.54 81.973 1435.88 80.897 1435.04 80.0199C1434.22 79.133 1433.28 78.4558 1432.22 77.9882C1431.16 77.5206 1430.04 77.281 1428.86 77.2696C1427.7 77.2483 1426.53 77.4706 1425.33 77.9366C1424.13 78.4026 1423.1 79.0379 1422.24 79.8426C1421.38 80.6472 1420.71 81.5808 1420.25 82.6433C1419.8 83.6958 1419.57 84.8292 1419.54 86.0433C1419.54 87.2475 1419.79 88.4872 1420.28 89.7623C1420.77 91.0118 1421.43 92.0928 1422.25 93.0053C1423.09 93.8823 1424.03 94.5595 1425.07 95.0371C1426.13 95.5047 1427.25 95.7442 1428.43 95.7556C1429.61 95.767 1430.79 95.5397 1431.99 95.0737ZM1465.25 88.2203C1461.45 89.6976 1458.07 89.7944 1455.1 88.5106C1452.14 87.2269 1449.89 84.6214 1448.36 80.6941L1442.53 65.6991L1448.73 63.2898L1454.47 78.0552C1455.46 80.6054 1456.7 82.2383 1458.18 82.9538C1459.66 83.6694 1461.35 83.6603 1463.24 82.9266C1465.12 82.1929 1466.37 81.0617 1466.98 79.5331C1467.59 78.0045 1467.4 75.9652 1466.41 73.415L1460.67 58.6495L1466.79 56.2699L1472.62 71.2649C1474.14 75.1922 1474.25 78.6305 1472.93 81.58C1471.61 84.5295 1469.05 86.743 1465.25 88.2203ZM1483.32 80.6658L1472.91 53.8891L1479.11 51.4797L1489.52 78.2564L1483.32 80.6658ZM1494.15 76.455L1492.59 72.4385L1501.39 46.0309L1503.03 47.9903L1486.01 54.6086L1484.05 49.5593L1506.58 40.7994L1508.14 44.8159L1499.38 71.2086L1497.73 69.2492L1515.6 62.3037L1517.56 67.353L1494.15 76.455Z" fill="white"/>
</svg>
